<?xml version="1.0" standalone="no"?>
<!DOCTYPE svg PUBLIC "-//W3C//DTD SVG 20010904//EN"
 "http://www.w3.org/TR/2001/REC-SVG-20010904/DTD/svg10.dtd">
<svg version="1.0" xmlns="http://www.w3.org/2000/svg"
 width="514.000000pt" height="456.000000pt" viewBox="0 0 514.000000 456.000000"
 preserveAspectRatio="xMidYMid meet">

<g transform="translate(0.000000,456.000000) scale(0.100000,-0.100000)"
fill="#000000" stroke="none">
<path d="M1660 3827 c-503 -342 -1057 -719 -1230 -836 -173 -118 -318 -217
-322 -220 -4 -4 71 -65 167 -136 l175 -130 0 -612 0 -613 -116 -462 c-96 -386
-114 -470 -109 -508 8 -55 24 -87 62 -122 55 -52 84 -58 305 -58 176 0 208 3
243 19 74 34 115 102 115 191 0 31 -43 221 -110 490 l-110 440 2 511 3 510
142 -106 142 -107 3 -516 3 -517 31 -81 c48 -128 115 -226 233 -344 473 -471
1307 -623 1996 -365 240 90 428 207 586 364 118 119 186 219 233 345 l31 81 3
517 3 517 455 340 c250 187 454 343 453 348 -2 6 -943 651 -1534 1049 -77 52
-318 216 -535 364 -217 149 -397 270 -400 270 -3 0 -417 -281 -920 -623z
m1533 -134 c336 -229 781 -531 987 -671 206 -140 378 -258 383 -262 4 -3 -86
-76 -200 -162 -1461 -1093 -1778 -1328 -1790 -1324 -11 5 -354 260 -1436 1070
-153 115 -275 212 -270 216 4 4 337 30 739 58 l731 52 47 -45 c65 -60 116 -78
208 -73 84 4 136 26 188 78 52 52 74 104 78 188 4 66 1 79 -27 136 -49 101
-138 155 -251 156 -100 0 -161 -34 -247 -137 -17 -21 -41 -23 -812 -78 -436
-31 -795 -55 -797 -53 -3 4 106 78 1171 801 307 209 586 400 620 423 33 24 61
43 63 44 1 0 278 -188 615 -417z m-1333 -2058 c129 -98 280 -213 335 -255 55
-42 164 -125 243 -184 l142 -108 143 105 c78 57 309 227 512 377 204 150 428
315 498 367 l128 93 -3 -468 -3 -469 -43 -86 c-122 -247 -456 -465 -845 -552
-390 -86 -793 -41 -1142 129 -225 110 -398 264 -477 423 l-43 86 -3 485 -3
484 163 -124 c90 -69 269 -205 398 -303z"/>
</g>
</svg>
