<?xml version="1.0" standalone="no"?>
<!DOCTYPE svg PUBLIC "-//W3C//DTD SVG 20010904//EN"
 "http://www.w3.org/TR/2001/REC-SVG-20010904/DTD/svg10.dtd">
<svg version="1.0" xmlns="http://www.w3.org/2000/svg"
 width="200.000000pt" height="200.000000pt" viewBox="0 0 200.000000 200.000000"
 preserveAspectRatio="xMidYMid meet">

<g transform="translate(0.000000,200.000000) scale(0.100000,-0.100000)"
fill="#000000" stroke="none">
<path d="M1449 1958 c-9 -7 -26 -28 -38 -45 -12 -18 -28 -33 -35 -33 -7 0 -27
16 -46 35 -19 19 -42 35 -52 35 -10 0 -53 -17 -96 -38 -77 -38 -77 -39 -122
-24 -30 10 -91 15 -180 16 -157 1 -242 -18 -369 -84 -185 -96 -335 -281 -371
-457 -15 -69 -8 -179 15 -245 15 -44 15 -51 0 -105 -9 -32 -34 -90 -56 -129
-58 -106 -52 -159 20 -188 41 -16 47 -27 53 -91 2 -23 11 -34 36 -46 30 -13
32 -17 18 -28 -20 -17 -20 -49 0 -91 14 -27 15 -41 6 -78 -18 -79 10 -113 109
-132 38 -8 79 -8 140 0 72 10 92 9 122 -4 40 -16 90 -79 108 -134 11 -35 33
-62 51 -62 4 0 31 23 60 51 88 86 255 170 490 248 53 18 99 39 102 47 3 8 2
34 -3 58 -17 91 13 198 106 374 l64 122 79 40 c44 22 84 48 89 58 6 12 6 33
-1 61 -14 54 -3 66 60 62 33 -1 52 2 61 12 13 17 71 193 71 219 0 10 -18 30
-40 44 -22 15 -40 34 -40 42 0 9 17 33 37 54 l38 39 -55 107 -55 107 -65 0
-65 0 -3 57 c-2 31 -8 61 -15 66 -7 5 -51 22 -100 36 -48 15 -93 29 -100 32
-7 2 -20 -1 -28 -8z m109 -105 l54 -17 -5 -40 c-5 -37 -2 -43 36 -78 40 -37
45 -39 89 -33 l48 6 27 -56 27 -55 -32 -33 c-31 -32 -32 -36 -26 -90 6 -51 10
-59 41 -78 36 -22 36 -19 8 -99 -11 -32 -16 -35 -58 -40 -39 -4 -52 -12 -83
-48 -34 -41 -36 -45 -26 -83 l10 -40 -58 -29 -57 -29 -29 30 c-24 25 -35 29
-81 29 -54 0 -60 -3 -97 -54 -13 -20 -14 -20 -76 -1 l-62 19 5 40 c5 37 2 43
-36 78 -40 37 -45 39 -89 33 l-48 -6 -27 56 -27 55 32 33 c31 32 32 36 26 90
-6 51 -10 59 -41 78 -36 22 -36 19 -8 99 11 32 16 35 58 40 39 4 52 12 82 47
33 39 35 44 26 83 l-9 41 58 29 57 29 29 -30 c24 -25 35 -29 80 -29 53 0 73
10 94 51 13 23 19 23 88 2z m-593 -33 c97 -14 103 -17 110 -51 10 -44 -7 -57
-60 -51 -28 3 -50 0 -60 -8 -15 -13 -75 -189 -75 -222 0 -10 18 -30 40 -44 22
-15 40 -34 40 -42 0 -9 -17 -33 -37 -54 l-38 -39 55 -107 55 -107 65 0 65 0 3
-57 c2 -31 8 -61 15 -66 19 -16 207 -71 222 -66 7 3 25 23 39 45 15 21 31 39
38 39 17 0 48 -31 48 -48 0 -8 -23 -54 -51 -103 -66 -115 -108 -236 -116 -337
l-6 -79 -126 -48 c-146 -55 -300 -131 -366 -182 -26 -19 -48 -33 -49 -31 -2 1
-17 24 -35 50 -18 27 -52 59 -79 75 -46 27 -51 28 -196 28 l-149 0 -3 80 c-1
44 -3 85 -3 90 0 6 2 31 5 56 5 43 4 48 -28 75 -21 18 -39 45 -46 71 -13 45
-52 83 -84 83 -24 0 -18 23 22 86 15 24 38 75 50 113 24 76 23 112 -5 221 -67
253 193 565 522 624 96 17 129 18 218 6z"/>
<path d="M1330 1727 c-184 -52 -274 -255 -190 -425 56 -112 145 -167 270 -167
125 0 214 55 270 167 76 153 8 341 -148 411 -57 24 -144 31 -202 14z m185
-101 c21 -11 53 -40 71 -63 107 -141 1 -347 -177 -346 -178 2 -282 206 -176
345 71 93 182 118 282 64z"/>
</g>
</svg>
