<?xml version="1.0" standalone="no"?>
<!DOCTYPE svg PUBLIC "-//W3C//DTD SVG 20010904//EN"
 "http://www.w3.org/TR/2001/REC-SVG-20010904/DTD/svg10.dtd">
<svg version="1.0" xmlns="http://www.w3.org/2000/svg"
 width="415.000000pt" height="350.000000pt" viewBox="0 0 415.000000 350.000000"
 preserveAspectRatio="xMidYMid meet">

<g transform="translate(0.000000,350.000000) scale(0.100000,-0.100000)"
fill="#000000" stroke="none">
<path d="M1590 3386 c-167 -36 -292 -167 -309 -325 l-6 -56 -515 -5 c-471 -5
-518 -7 -543 -23 -60 -39 -62 -47 -65 -332 l-3 -262 736 -278 c696 -263 738
-278 748 -260 28 51 105 118 174 152 72 35 78 37 206 41 145 5 220 -5 291 -39
56 -26 141 -100 162 -141 12 -24 20 -29 38 -24 13 3 347 134 742 290 l719 285
3 243 c2 228 1 245 -18 276 -11 18 -34 41 -52 52 -32 19 -52 20 -539 20 l-507
0 -12 67 c-21 123 -99 231 -204 285 -83 42 -148 48 -581 47 -278 0 -428 -5
-465 -13z m912 -286 c46 -13 98 -56 98 -81 0 -17 10 -19 107 -21 l108 -3 -37
-41 c-20 -22 -60 -53 -88 -68 -100 -54 -115 -56 -631 -56 -450 0 -481 1 -542
20 -75 23 -149 71 -185 118 l-25 32 106 0 c103 0 105 0 111 24 7 27 52 63 94
76 41 12 840 12 884 0z"/>
<path d="M3245 1866 l-710 -283 -5 -114 c-7 -135 -31 -198 -104 -277 -96 -103
-207 -138 -414 -130 -119 4 -133 7 -200 38 -87 40 -161 113 -200 197 -22 49
-27 77 -32 173 l-5 115 -205 77 c-113 43 -263 100 -335 127 -525 200 -853 324
-867 328 -17 5 -18 -45 -18 -947 0 -944 0 -953 21 -989 11 -20 32 -45 47 -56
27 -20 45 -20 1830 -23 1993 -2 1842 -7 1893 61 l24 32 3 978 c1 537 -1 977
-5 976 -5 0 -327 -128 -718 -283z"/>
<path d="M1929 1791 c-90 -28 -108 -70 -109 -251 0 -152 10 -183 72 -217 47
-26 278 -26 325 -1 61 34 73 69 73 219 0 111 -4 141 -20 177 -29 64 -76 82
-210 81 -58 0 -117 -4 -131 -8z"/>
</g>
</svg>
