<?xml version="1.0" standalone="no"?>
<!DOCTYPE svg PUBLIC "-//W3C//DTD SVG 20010904//EN"
 "http://www.w3.org/TR/2001/REC-SVG-20010904/DTD/svg10.dtd">
<svg version="1.0" xmlns="http://www.w3.org/2000/svg"
 width="200.000000pt" height="200.000000pt" viewBox="0 0 200.000000 200.000000"
 preserveAspectRatio="xMidYMid meet">
<metadata>
Created by potrace 1.16, written by Peter Selinger 2001-2019
</metadata>
<g transform="translate(0.000000,200.000000) scale(0.100000,-0.100000)"
fill="#000000" stroke="none">
<path d="M1526 1796 l-110 -104 -45 29 c-73 44 -193 80 -290 86 -178 11 -350
-55 -475 -181 -40 -40 -85 -97 -102 -131 -44 -83 -226 -638 -226 -686 1 -70
39 -115 113 -132 26 -7 26 -9 31 -100 8 -155 65 -250 184 -308 49 -25 82 -33
139 -37 l75 -5 0 -38 c0 -62 15 -89 49 -89 20 0 34 7 41 19 14 28 13 164 -2
183 -10 12 -37 17 -113 20 -109 5 -156 22 -209 74 -56 56 -69 98 -74 229 -4
136 -9 145 -77 145 -45 0 -65 13 -65 45 0 36 187 583 219 638 43 75 147 171
224 207 88 42 196 63 276 55 73 -7 170 -37 219 -67 l34 -21 -34 -34 -34 -34
-60 28 c-54 26 -68 28 -174 27 -187 0 -270 -45 -270 -144 0 -57 -11 -43 268
-352 124 -137 226 -241 243 -248 40 -17 97 -6 129 25 57 55 86 241 56 368 -16
69 -50 146 -70 159 -23 15 -39 7 -103 -54 l-65 -63 57 -5 c65 -6 89 -26 66
-54 -11 -13 -35 -16 -117 -16 -124 0 -124 0 -124 120 0 89 10 120 40 120 24 0
33 -15 40 -68 l5 -42 255 235 c232 214 255 238 255 268 0 29 -3 32 -35 34 -32
2 -45 -6 -144 -101z"/>
<path d="M1487 1554 c-15 -15 -6 -66 18 -103 48 -77 69 -157 69 -266 0 -93 -4
-111 -52 -255 -76 -231 -83 -263 -89 -410 -6 -145 10 -273 45 -367 16 -45 20
-48 52 -48 46 0 48 18 20 138 -28 119 -36 252 -21 358 7 46 40 167 74 269 l61
185 0 125 c1 141 -19 224 -78 323 -25 42 -37 53 -61 55 -17 2 -34 0 -38 -4z"/>
<path d="M639 1064 c-16 -18 -24 -37 -24 -64 0 -56 35 -90 92 -90 48 0 78 22
89 65 16 64 -24 115 -89 115 -34 0 -49 -6 -68 -26z"/>
</g>
</svg>
